<svg width="1600" height="610" viewBox="0 0 1600 610" xmlns="http://www.w3.org/2000/svg">
<defs>
  <linearGradient id="g" x1="0" y1="0" x2="1600" y2="610">
    <stop stop-color="#071B35"/><stop offset="1" stop-color="#0A3158"/>
  </linearGradient>
</defs>
<rect width="1600" height="610" rx="32" fill="url(#g)"/>
<text x="80" y="82" fill="#7EC0FF" font-family="Arial" font-size="22" letter-spacing="4">20 FIELDS · ONE NETWORK</text>
<text x="80" y="132" fill="white" font-family="Arial" font-size="38" font-weight="700">전공은 다르지만, 문제는 함께 풉니다.</text>
<g stroke="#4D9FE8" stroke-opacity=".36" stroke-width="2">
  <path d="M800 305L280 135M800 305L470 110M800 305L680 115M800 305L910 110M800 305L1130 130M800 305L1350 180
           M800 305L1320 360M800 305L1170 490M800 305L900 510M800 305L650 505M800 305L390 480M800 305L235 355"/>
</g>
<circle cx="800" cy="305" r="88" fill="#0D4D86" stroke="#78C4FF" stroke-width="3"/>
<text x="800" y="295" text-anchor="middle" fill="white" font-family="Arial" font-size="28" font-weight="700">NEXUS</text>
<text x="800" y="330" text-anchor="middle" fill="#9FD3FF" font-family="Arial" font-size="17">INTERDISCIPLINARY</text>
<g fill="#0B3D69" stroke="#5FAEFF" stroke-width="2" font-family="Arial">
  <circle cx="280" cy="135" r="58"/><text x="280" y="140" text-anchor="middle" fill="white" font-size="18">Engineering</text>
  <circle cx="470" cy="110" r="52"/><text x="470" y="115" text-anchor="middle" fill="white" font-size="17">Software</text>
  <circle cx="680" cy="115" r="54"/><text x="680" y="120" text-anchor="middle" fill="white" font-size="17">Security</text>
  <circle cx="910" cy="110" r="58"/><text x="910" y="115" text-anchor="middle" fill="white" font-size="17">Robotics</text>
  <circle cx="1130" cy="130" r="58"/><text x="1130" y="135" text-anchor="middle" fill="white" font-size="17">Architecture</text>
  <circle cx="1350" cy="180" r="58"/><text x="1350" y="185" text-anchor="middle" fill="white" font-size="17">Design</text>
  <circle cx="1320" cy="360" r="58"/><text x="1320" y="365" text-anchor="middle" fill="white" font-size="17">Healthcare</text>
  <circle cx="1170" cy="490" r="58"/><text x="1170" y="495" text-anchor="middle" fill="white" font-size="17">FoodTech</text>
  <circle cx="900" cy="510" r="58"/><text x="900" y="515" text-anchor="middle" fill="white" font-size="17">Business</text>
  <circle cx="650" cy="505" r="58"/><text x="650" y="510" text-anchor="middle" fill="white" font-size="17">Public</text>
  <circle cx="390" cy="480" r="58"/><text x="390" y="485" text-anchor="middle" fill="white" font-size="17">Sports</text>
  <circle cx="235" cy="355" r="58"/><text x="235" y="360" text-anchor="middle" fill="white" font-size="17">Agriculture</text>
</g>
</svg>